<?xml version="1.0" encoding="utf-8"?>
<!-- Generator: Adobe Illustrator 19.2.1, SVG Export Plug-In . SVG Version: 6.00 Build 0)  -->
<svg version="1.1" id="Mode_Isolation" xmlns="http://www.w3.org/2000/svg" xmlns:xlink="http://www.w3.org/1999/xlink" x="0px"
	 y="0px" viewBox="0 0 470 470" style="enable-background:new 0 0 470 470;" xml:space="preserve">
<style type="text/css">
	.st0{fill:#082947;}
	.st1{fill:#C1E8E6;}
	.st2{fill:#C2FBFF;}
	.st3{fill:#00A58D;}
	.st4{fill:#15DEB0;}
</style>
<path class="st0" d="M439.2,186.9c-3.4-2.4-8.1-1.6-10.5,1.8c-2.4,3.4-1.6,8.1,1.8,10.5c11.2,7.9,24.5,20.4,24.5,35.7
	c0,23.6-33,48.2-88.6,63.8c-6.2-20.9-14.6-42.7-24.9-64.7c9.8-21.5,17.9-42.7,24-63c14.6,4,28.1,8.8,40,14.2c1,0.5,2.1,0.7,3.1,0.7
	c2.9,0,5.6-1.6,6.8-4.4c1.7-3.8,0-8.2-3.7-9.9c-12.6-5.7-26.7-10.7-42.1-14.9c3.2-12.6,5.6-24.7,7.1-36.2
	c6.1-1.4,11.4-5.2,14.6-10.7c3-5.2,3.8-11.3,2.2-17.1c-1.6-5.8-5.3-10.7-10.5-13.7c-1.9-1.1-3.8-1.9-5.9-2.4
	c-3-21.6-11.8-37.1-25.4-45c-23.1-13.3-57-3.6-95.4,27.4c-7.2,5.8-14.4,12.2-21.5,19.2c-7.2-7.1-14.5-13.6-21.8-19.5
	c-38.4-31-72.2-40.8-95.4-27.4C103.7,39.3,95,55,92,76.9c-1.7,0.5-3.3,1.2-4.9,2.1c-5.2,3-8.9,7.9-10.5,13.7
	c-1.6,5.8-0.8,11.9,2.2,17.1c3,5.2,8,8.9,13.7,10.5c1.5,11.6,3.9,23.9,7.2,36.6c-12.5,3.5-24.2,7.4-34.8,11.9
	c-4-3.8-9.5-6.2-15.5-6.2c-12.4,0-22.5,10.1-22.5,22.5c0,1.6,0.2,3.1,0.5,4.5C9.4,203.1,0,218.7,0,234.9c0,26.7,25.4,51.2,71.4,68.9
	c8.6,3.3,17.8,6.3,27.4,9c-4,15.3-6.7,30-8,43.6c-0.4,4.1,2.6,7.8,6.7,8.2c0.2,0,0.5,0,0.7,0c3.8,0,7.1-2.9,7.5-6.8
	c1.3-12.9,3.8-26.7,7.6-41.3c21.1,5,44.1,8.7,68.2,10.9c13.7,19.4,28.1,37.1,42.7,52.7c-41.6,40.9-79.7,57.4-100.2,45.5
	c-13.2-7.6-17.5-25.4-18.7-39c-0.4-4.1-4-7.2-8.1-6.8c-4.1,0.4-7.2,4-6.8,8.1c2.2,24.6,11.3,42.1,26.1,50.7
	c6.8,3.9,14.4,5.8,22.9,5.8c20.4,0,45.3-11.3,72.5-33.3c7.6-6.1,15.2-13,22.7-20.4c9.6,9.4,19.1,17.8,28.6,24.9c0,0,0,0.1,0,0.1
	c-1.6,5.8-0.8,11.9,2.2,17.1c4,6.9,11.5,11.3,19.5,11.3c3.9,0,7.8-1,11.2-3c1.6-0.9,3.1-2,4.3-3.3c10.4,4.2,20.2,6.4,29.1,6.4
	c8.5,0,16.2-1.9,22.9-5.8c23.1-13.3,31.6-47.5,23.9-96.3c-1.5-9.4-3.5-19.1-6.1-29.1c9.9-2.8,19.4-5.9,28.2-9.3
	c46.1-17.7,71.4-42.2,71.4-68.9C470,217.7,459.3,201.1,439.2,186.9z M351.8,302.4c-16.2,3.8-34,6.9-53.2,9
	c6.1-9.3,12-18.9,17.8-28.8c5.9-10.3,11.5-20.6,16.7-31C340.6,268.9,346.9,286,351.8,302.4z M164.8,195.1
	c7.9-13.6,16-26.4,24.1-38.4c15-1.2,30.4-1.8,46.1-1.8c15.4,0,30.5,0.6,45.3,1.8c8.1,11.9,16.2,24.6,24,38.2
	c7.5,13,14.4,26.1,20.7,39.1c-6.5,13.7-13.7,27.5-21.6,41.1c-7.8,13.5-15.8,26.3-24,38.1c-14.2,1.1-29,1.6-44.4,1.6
	c-15.7,0-30.7-0.6-45.1-1.7c-8.4-12.2-16.5-25-24.2-38.3c-7.8-13.6-15-27.3-21.5-40.9C150.5,221,157.3,208,164.8,195.1z
	 M136.2,216.4c-7.2-16.7-13.2-33.1-18-48.9c16.1-3.8,33.3-6.8,51.4-8.9c-6.1,9.4-12.1,19-17.9,29
	C146.3,197.1,141.1,206.7,136.2,216.4z M234.6,99.5c11.4,12.1,22.9,25.9,34.4,41.4c-11.2-0.6-22.6-1-34-1c-11.7,0-23.4,0.4-34.8,1
	C211.6,125.4,223.2,111.5,234.6,99.5z M332.9,216.3c-4.9-9.7-10.1-19.3-15.7-28.9c-5.7-9.9-11.7-19.5-17.8-28.9
	c18.1,2.1,35.3,5,51.4,8.8C346.2,183.1,340.1,199.6,332.9,216.3z M378.1,102.2c-1.3,2.3-3.8,3.8-6.5,3.8c-1.3,0-2.6-0.3-3.7-1
	c-1.7-1-3-2.6-3.5-4.6c-0.5-1.9-0.3-4,0.8-5.7c1.2-2.1,3.3-3.4,5.7-3.7c0.3,0,0.5-0.1,0.8-0.1c1.3,0,2.6,0.3,3.7,1
	c1.7,1,3,2.6,3.5,4.6C379.4,98.4,379.2,100.4,378.1,102.2z M344.1,44.6c11.4,6.6,16.2,20.9,18,33.5c-4.1,1.9-7.6,5.1-9.9,9.1
	c-3,5.2-3.8,11.3-2.2,17.1s5.3,10.7,10.5,13.7c0.4,0.2,0.8,0.5,1.2,0.7c-1.4,10.8-3.6,22.3-6.7,34.3c-20.6-4.8-43-8.4-66.5-10.5
	c-13.9-19.7-28.5-37.7-43.4-53.4C286.2,48.9,323.7,32.8,344.1,44.6z M91.1,96.5c0.5-1.9,1.8-3.6,3.5-4.6c1.1-0.7,2.4-1,3.7-1
	c0.1,0,0.1,0,0.2,0c2.6,0,5.1,1.5,6.4,3.7c1,1.7,1.3,3.8,0.8,5.7c-0.5,1.9-1.8,3.6-3.5,4.6c-1.2,0.7-2.4,1-3.7,1
	c-2.7,0-5.2-1.4-6.5-3.8C90.8,100.4,90.6,98.4,91.1,96.5z M107.5,119c0.7-0.3,1.4-0.7,2.1-1.1c5.2-3,8.9-7.9,10.5-13.7
	c1.6-5.8,0.8-11.9-2.2-17.1c-2.5-4.3-6.3-7.6-10.8-9.5c1.9-12.6,6.6-26.7,18-33.3c20.4-11.8,58,4.4,99.2,44.5
	c-14.9,15.7-29.6,33.8-43.5,53.5c-23.5,2.2-45.9,5.8-66.5,10.7C111.2,141.2,108.9,129.8,107.5,119z M56.9,184.9
	c0,4.1-3.4,7.5-7.5,7.5s-7.5-3.4-7.5-7.5s3.4-7.5,7.5-7.5S56.9,180.8,56.9,184.9z M15,234.9c0-13.3,10-24.5,20.2-32.5
	c3.9,3.2,8.8,5.1,14.2,5.1c12.4,0,22.5-10.1,22.5-22.5c0-1-0.1-1.9-0.2-2.9c9.8-4,20.5-7.7,32-10.9c6.1,20.2,14.1,41.4,24,62.8
	c-10.2,22-18.6,43.7-24.8,64.5C47.7,282.9,15,258.4,15,234.9z M117.4,302.2c4.9-16.3,11.2-33.3,18.8-50.6
	c5.1,10.3,10.7,20.5,16.6,30.7c5.7,9.9,11.7,19.6,17.9,29C151.4,309.2,133.6,306.1,117.4,302.2z M235,329.9
	c11.2,0,22.3-0.3,33.2-0.9c-11.2,15.1-22.4,28.6-33.5,40.4c-11.4-12.1-22.7-25.7-33.6-40.5C212.2,329.6,223.6,329.9,235,329.9z
	 M278.5,425.4c-1-1.7-1.3-3.8-0.7-5.7c0.2-0.7,0.5-1.4,0.9-2c0,0,0,0,0,0c0.1-0.1,0.1-0.2,0.1-0.2c0.6-0.9,1.5-1.7,2.4-2.3
	c1.1-0.7,2.4-1,3.7-1c2.7,0,5.2,1.4,6.5,3.8c2.1,3.6,0.8,8.2-2.7,10.2c-1.2,0.7-2.4,1-3.7,1C282.3,429.1,279.8,427.7,278.5,425.4z
	 M361.6,344.4c6.6,41.6,0.5,71.1-16.6,81c-11.4,6.6-25.9,3.6-37.7-1c0.6-4.7-0.3-9.6-2.8-14c-4-6.9-11.5-11.3-19.5-11.3
	c-3.9,0-7.8,1-11.2,3c-0.7,0.4-1.3,0.8-1.9,1.2c-8.8-6.7-17.7-14.5-26.6-23.3c14.6-15.5,28.9-33.2,42.5-52.5
	c24.1-2.2,47.1-5.8,68.2-10.8C358.3,326.3,360.2,335.5,361.6,344.4z"/>
<path class="st1" d="M41.9,184.9c0,4.1,3.4,7.5,7.5,7.5s7.5-3.4,7.5-7.5s-3.4-7.5-7.5-7.5S41.9,180.8,41.9,184.9z"/>
<path class="st2" d="M375.4,91.9c-1.2-0.7-2.4-1-3.7-1c-0.3,0-0.5,0-0.7,0.1c-2.4,0.3-4.6,1.6-5.8,3.7c-1,1.7-1.3,3.8-0.8,5.7
	c0.5,1.9,1.8,3.6,3.5,4.6c1.2,0.7,2.4,1,3.7,1c2.7,0,5.2-1.4,6.5-3.8c1-1.7,1.3-3.8,0.7-5.7S377.1,92.9,375.4,91.9z"/>
<path class="st3" d="M98.4,105.9c1.3,0,2.6-0.3,3.7-1c1.7-1,3-2.6,3.5-4.6c0.5-1.9,0.3-4-0.8-5.7c-1.3-2.3-3.8-3.7-6.4-3.7
	c-0.1,0-0.1,0-0.2,0c-1.3,0-2.6,0.3-3.7,1c-1.7,1-3,2.6-3.5,4.6c-0.5,1.9-0.3,4,0.7,5.7C93.2,104.5,95.7,105.9,98.4,105.9z"/>
<path class="st4" d="M235,272.4c20.7,0,37.5-16.8,37.5-37.5s-16.8-37.5-37.5-37.5s-37.5,16.8-37.5,37.5S214.3,272.4,235,272.4z"/>
<path class="st0" d="M235,287.4c28.9,0,52.5-23.6,52.5-52.5s-23.6-52.5-52.5-52.5s-52.5,23.6-52.5,52.5S206.1,287.4,235,287.4z
	 M235,197.4c20.7,0,37.5,16.8,37.5,37.5s-16.8,37.5-37.5,37.5s-37.5-16.8-37.5-37.5S214.3,197.4,235,197.4z"/>
</svg>
