<?xml version="1.0" encoding="utf-8"?>
<!-- Generator: Adobe Illustrator 19.2.1, SVG Export Plug-In . SVG Version: 6.00 Build 0)  -->
<svg version="1.1" id="Capa_1" xmlns="http://www.w3.org/2000/svg" xmlns:xlink="http://www.w3.org/1999/xlink" x="0px" y="0px"
	 viewBox="0 0 470 470" style="enable-background:new 0 0 470 470;" xml:space="preserve">
<style type="text/css">
	.st0{fill:#00A58D;}
	.st1{fill:#15DEB0;}
	.st2{fill:#082947;}
</style>
<g>
	<path class="st0" d="M127.8,308.6c6.9-21.4,10.8-43.6,11.5-66.1h-124c1.8,53.8,23.2,107.1,64.2,148.1c0.5,0.5,1,1,1.5,1.5
		c14.7-17.2,26.8-36.1,36.2-56.3c1.7-3.7,6.1-5.4,9.9-3.7c2-4.6,3.8-9.3,5.5-14C128.7,316.7,126.6,312.5,127.8,308.6z"/>
	<path class="st0" d="M139.3,227.5C137.6,172.8,117,120.3,80.9,78c-0.5,0.5-1,1-1.5,1.5c-41,41-62.4,94.2-64.2,148.1H139.3z
		 M79.5,134.2c2.7,0,5,1.4,6.3,3.5c0.7,1.2,1.2,2.5,1.2,4c0,4.1-3.4,7.5-7.5,7.5c-1.6,0-3-0.5-4.2-1.3c-2-1.3-3.3-3.6-3.3-6.2
		C72,137.6,75.4,134.2,79.5,134.2z"/>
	<path class="st0" d="M342.9,138c-3.8-1.7-5.4-6.2-3.6-10c10.1-21.7,23.1-41.9,38.8-60.2c-37.9-32.6-85.3-51-135.5-52.7v212.4h73.2
		c0.7-24.1,4.8-47.9,12.2-70.7c1.3-3.9,5.5-6.1,9.4-4.8c0,0,0.1,0,0.1,0C339.2,147.3,341,142.6,342.9,138
		C342.9,138,342.9,138,342.9,138z"/>
	<path class="st0" d="M315.7,242.5h-73.2v212.4c50.2-1.7,97.6-20.1,135.5-52.7C339.4,357.1,317.4,300.9,315.7,242.5z M287.9,371.2
		c-0.3,0-0.5,0-0.8,0c-0.8,0-1.5-0.1-2.2-0.3c-2.1-0.7-3.8-2.2-4.7-4.2c-0.4-0.9-0.6-1.9-0.6-3c0-0.8,0.1-1.5,0.3-2.2
		c0.9-3.1,3.8-5.3,7.2-5.3c4.1,0,7.5,3.4,7.5,7.5C294.6,367.7,291.6,370.9,287.9,371.2z M317.1,401.3c-0.7,0-1.4-0.1-2-0.3
		c-2.1-0.6-3.9-2.1-4.8-4.1c-0.4-0.9-0.7-2-0.7-3.1c0-0.8,0.1-1.6,0.4-2.4c1-3,3.8-5.1,7.1-5.1c4.1,0,7.5,3.4,7.5,7.5
		c0,3.9-3,7.1-6.7,7.5C317.6,401.3,317.4,401.3,317.1,401.3z"/>
	<path class="st1" d="M92,402.2c37.9,32.5,85.3,51,135.5,52.7V242.5h-73.2c-0.7,24.1-4.8,47.8-12.2,70.7c-1,3.2-4,5.2-7.1,5.2
		c-0.8,0-1.5-0.1-2.3-0.4c0,0-0.1,0-0.1,0c-1.7,4.7-3.5,9.4-5.5,14c0,0,0.1,0,0.1,0c3.8,1.7,5.4,6.2,3.6,10
		C120.7,363.7,107.7,383.9,92,402.2z"/>
	<path class="st1" d="M154.3,227.5h73.2V15.1C177.2,16.8,129.9,35.3,92,67.8C130.6,112.9,152.6,169.1,154.3,227.5z"/>
	<path class="st1" d="M330.7,242.5c1.7,54.7,22.2,107.2,58.3,149.5c0.5-0.5,1-1,1.5-1.5c41-41,62.4-94.3,64.2-148.1L330.7,242.5
		L330.7,242.5z"/>
	<path class="st1" d="M389.1,78c-14.7,17.2-26.8,36.1-36.2,56.3c-1.3,2.7-4,4.3-6.8,4.3c-1,0-2.1-0.2-3.1-0.7c-2,4.6-3.8,9.3-5.5,14
		c3.9,1.3,6,5.5,4.7,9.4c-6.9,21.4-10.8,43.6-11.5,66.1h124c-1.8-53.8-23.2-107.1-64.2-148.1C390.1,78.9,389.6,78.5,389.1,78z"/>
	<path class="st2" d="M470,235.1C470,235.1,470,235,470,235.1c0-0.1,0-0.1,0-0.2c0-62.7-24.5-121.7-68.8-166.1
		C356.8,24.4,297.8,0,235,0C175.7,0,119.8,21.8,76.4,61.6c0,0,0,0-0.1,0c0,0-0.1,0.1-0.1,0.1c-2.5,2.3-5,4.7-7.5,7.1
		C24.5,113.2,0,172.2,0,235c0,62.8,24.5,121.8,68.8,166.2C113.2,445.5,172.2,470,235,470c59.2,0,115.1-21.8,158.5-61.5
		c0,0,0.1,0,0.1-0.1c0,0,0.1-0.1,0.1-0.1c2.5-2.3,5-4.7,7.4-7.1C445.5,356.8,470,297.8,470,235.1z M389.1,392
		c-36.1-42.3-56.6-94.9-58.3-149.5h124c-1.8,53.8-23.2,107.1-64.2,148.1C390.1,391.1,389.6,391.5,389.1,392z M127.1,332
		C127.1,332,127.1,332,127.1,332c-3.8-1.7-8.2-0.1-10,3.6c-9.4,20.3-21.6,39.2-36.2,56.3c-0.5-0.5-1-1-1.5-1.5
		c-41-41-62.4-94.3-64.2-148.1h124c-0.7,22.5-4.5,44.7-11.5,66.1c-1.3,3.9,0.8,8.1,4.7,9.4c0,0,0.1,0,0.1,0c0.8,0.2,1.5,0.4,2.3,0.4
		c3.2,0,6.1-2,7.1-5.2c7.4-22.9,11.5-46.6,12.2-70.7h73.2v212.4c-50.2-1.7-97.6-20.1-135.5-52.7c15.7-18.3,28.7-38.5,38.8-60.2
		C132.5,338.2,130.9,333.8,127.1,332z M80.9,78c36.1,42.3,56.6,94.9,58.3,149.5h-124c1.8-53.8,23.2-107.1,64.2-148.1
		C79.9,78.9,80.4,78.5,80.9,78z M227.5,227.5h-73.2c-1.7-58.4-23.6-114.6-62.3-159.7c37.9-32.6,85.3-51,135.5-52.7L227.5,227.5
		L227.5,227.5z M242.5,242.5h73.2c1.7,58.4,23.6,114.6,62.3,159.7c-37.9,32.6-85.3,51-135.5,52.7V242.5z M330.7,227.5
		c0.7-22.5,4.5-44.7,11.5-66.1c1.3-3.9-0.8-8.1-4.7-9.4c0,0-0.1,0-0.1,0c-3.9-1.3-8.2,0.9-9.4,4.8c-7.4,22.9-11.5,46.6-12.2,70.7
		h-73.2V15.1c50.2,1.7,97.6,20.1,135.5,52.7c-15.7,18.3-28.7,38.5-38.8,60.2c-1.7,3.8-0.1,8.2,3.6,10c0,0,0.1,0,0.1,0
		c1,0.4,2,0.7,3.1,0.7c2.8,0,5.5-1.6,6.8-4.3c9.4-20.3,21.6-39.2,36.2-56.3c0.5,0.5,1,1,1.5,1.5c41,41,62.4,94.3,64.2,148.1
		L330.7,227.5L330.7,227.5z"/>
	<path class="st2" d="M79.5,134.2c-4.1,0-7.5,3.4-7.5,7.5c0,2.6,1.3,4.9,3.3,6.2c1.2,0.8,2.6,1.3,4.2,1.3c4.1,0,7.5-3.4,7.5-7.5
		c0-1.5-0.4-2.9-1.2-4C84.5,135.6,82.2,134.2,79.5,134.2z"/>
	<path class="st2" d="M287.1,356.3c-3.4,0-6.2,2.2-7.2,5.3c-0.2,0.7-0.3,1.5-0.3,2.2c0,1.1,0.2,2.1,0.6,3c0.9,2,2.6,3.5,4.7,4.2
		c0.7,0.2,1.5,0.3,2.2,0.3c0.3,0,0.5,0,0.8,0c3.8-0.4,6.7-3.6,6.7-7.5C294.6,359.6,291.2,356.3,287.1,356.3z"/>
	<path class="st2" d="M324.6,393.8c0-4.1-3.4-7.5-7.5-7.5c-3.3,0-6.1,2.1-7.1,5.1c-0.3,0.8-0.4,1.6-0.4,2.4c0,1.1,0.2,2.2,0.7,3.1
		c0.9,2,2.7,3.5,4.8,4.1c0.6,0.2,1.3,0.3,2,0.3c0.3,0,0.5,0,0.8,0C321.6,400.9,324.6,397.7,324.6,393.8z"/>
</g>
</svg>
