<?xml version="1.0" encoding="utf-8"?>
<!-- Generator: Adobe Illustrator 19.2.1, SVG Export Plug-In . SVG Version: 6.00 Build 0)  -->
<svg version="1.1" id="Mode_Isolation" xmlns="http://www.w3.org/2000/svg" xmlns:xlink="http://www.w3.org/1999/xlink" x="0px"
	 y="0px" viewBox="0 0 470 470" style="enable-background:new 0 0 470 470;" xml:space="preserve">
<style type="text/css">
	.st0{fill:#15DEB0;}
	.st1{fill:#C1E8E6;}
	.st2{fill:#00A58D;}
	.st3{fill:#FFFFFF;}
	.st4{fill:#DAEAE9;}
	.st5{fill:#082947;}
</style>
<g>
	<path class="st0" d="M61.8,375h346.4V15H61.8V375z M76.8,37.5c0-4.1,3.4-7.5,7.5-7.5h301.4c4.1,0,7.5,3.4,7.5,7.5v315
		c0,4.1-3.4,7.5-7.5,7.5H84.3c-4.1,0-7.5-3.4-7.5-7.5V37.5z"/>
	<path class="st1" d="M119.5,328.4c-0.1,0-0.1-0.1-0.2-0.1c-3.2-2.6-3.7-7.3-1.1-10.5C146.9,282.3,189.5,262,235,262
		s88.1,20.3,116.8,55.8c2.6,3.2,2.1,7.9-1.1,10.5c-0.1,0-0.1,0.1-0.2,0.1c3.8,5.3,7.3,10.8,10.4,16.6h17.3V45H91.8v300h17.3
		C112.2,339.2,115.7,333.7,119.5,328.4z M235,70c48.8,0,88.5,39.7,88.5,88.5S283.8,247,235,247s-88.5-39.7-88.5-88.5
		S186.2,70,235,70z"/>
	<path class="st2" d="M190.9,329.9c-0.4,0.1-0.8,0.1-1.2,0.1c-3.6,0-6.8-2.6-7.4-6.3c-0.5-2.9-0.7-5.9-0.7-8.9V288
		c-19.8,8.5-37.6,21.9-51.6,39.2c-2.6,3.2-7.2,3.7-10.4,1.2c-3.8,5.3-7.3,10.8-10.4,16.6h91.1c-3.8-4.4-6.8-9.6-8.8-15.2
		C191.3,329.8,191.1,329.9,190.9,329.9z"/>
	<path class="st2" d="M346,330c-2.2,0-4.4-1-5.8-2.8c-14-17.4-31.8-30.7-51.6-39.2v26.9c0,3-0.2,6-0.7,8.9c-0.6,3.7-3.8,6.3-7.4,6.3
		c-0.4,0-0.8,0-1.2-0.1c-0.2,0-0.4-0.1-0.6-0.1c-1.9,5.7-4.9,10.8-8.8,15.2h91.1c-3.1-5.8-6.5-11.3-10.4-16.6
		C349.1,329.5,347.5,330,346,330z"/>
	<path class="st3" d="M273,321.3c0.4-2.1,0.5-4.2,0.5-6.4v-32.3c-10-3-20.4-4.8-31-5.4v2.3c0,4.1-3.4,7.5-7.5,7.5s-7.5-3.4-7.5-7.5
		v-2.3c-10.6,0.6-21,2.4-31,5.4v32.3c0,2.1,0.2,4.3,0.5,6.4c0.6,3.9-1.8,7.5-5.5,8.5c1.9,5.7,4.9,10.8,8.8,15.2h69.5
		c3.8-4.4,6.8-9.6,8.8-15.2C274.8,328.8,272.3,325.1,273,321.3z M242.5,322.5c0,4.1-3.4,7.5-7.5,7.5s-7.5-3.4-7.5-7.5v-13
		c0-4.1,3.4-7.5,7.5-7.5s7.5,3.4,7.5,7.5V322.5z"/>
	<path class="st4" d="M235,232c40.5,0,73.5-33,73.5-73.5S275.5,85,235,85s-73.5,33-73.5,73.5S194.5,232,235,232z M216.1,156.4
		c3.9-1.4,8.2,0.7,9.6,4.6c1.4,3.9,5.1,6.6,9.3,6.6c4.2,0,7.9-2.6,9.3-6.6c1.4-3.9,5.7-5.9,9.6-4.6c3.9,1.4,5.9,5.7,4.6,9.6
		c-3.5,9.9-12.9,16.6-23.5,16.6c-10.5,0-19.9-6.7-23.5-16.6C210.2,162.1,212.2,157.8,216.1,156.4z"/>
	<path class="st5" d="M415.7,415H54.3c-4.1,0-7.5,3.4-7.5,7.5s3.4,7.5,7.5,7.5h361.4c4.1,0,7.5-3.4,7.5-7.5S419.9,415,415.7,415z"/>
	<path class="st5" d="M235,455H54.3c-4.1,0-7.5,3.4-7.5,7.5s3.4,7.5,7.5,7.5H235c4.1,0,7.5-3.4,7.5-7.5S239.1,455,235,455z"/>
	<path class="st5" d="M235,247c48.8,0,88.5-39.7,88.5-88.5S283.8,70,235,70s-88.5,39.7-88.5,88.5S186.2,247,235,247z M235,85
		c40.5,0,73.5,33,73.5,73.5S275.5,232,235,232s-73.5-33-73.5-73.5S194.5,85,235,85z"/>
	<path class="st5" d="M129.9,327.2c14-17.4,31.8-30.7,51.6-39.2v26.9c0,3,0.2,6,0.7,8.9c0.6,3.7,3.8,6.3,7.4,6.3
		c0.4,0,0.8,0,1.2-0.1c0.2,0,0.4-0.1,0.6-0.1c3.7-1,6.2-4.6,5.5-8.5c-0.4-2.1-0.5-4.2-0.5-6.4v-32.3c10-3,20.4-4.8,31-5.4v2.3
		c0,4.1,3.4,7.5,7.5,7.5s7.5-3.4,7.5-7.5v-2.3c10.6,0.6,21,2.4,31,5.4v32.3c0,2.1-0.2,4.3-0.5,6.4c-0.6,3.9,1.8,7.5,5.5,8.5
		c0.2,0.1,0.4,0.1,0.6,0.1c0.4,0.1,0.8,0.1,1.2,0.1c3.6,0,6.8-2.6,7.4-6.3c0.5-2.9,0.7-5.9,0.7-8.9V288
		c19.8,8.6,37.6,21.9,51.6,39.2c1.5,1.8,3.6,2.8,5.8,2.8c1.6,0,3.2-0.5,4.5-1.6c0.1,0,0.1-0.1,0.2-0.1c3.2-2.6,3.7-7.3,1.1-10.5
		C323.1,282.3,280.5,262,235,262s-88.1,20.3-116.8,55.8c-2.6,3.2-2.1,7.9,1.1,10.5c0.1,0,0.1,0.1,0.2,0.1
		C122.7,330.9,127.3,330.4,129.9,327.2z"/>
	<path class="st5" d="M235,182.6c10.5,0,19.9-6.7,23.5-16.6c1.4-3.9-0.7-8.2-4.6-9.6c-3.9-1.4-8.2,0.7-9.6,4.6
		c-1.4,3.9-5.1,6.6-9.3,6.6c-4.2,0-7.9-2.6-9.3-6.6c-1.4-3.9-5.7-5.9-9.6-4.6c-3.9,1.4-5.9,5.7-4.6,9.6
		C215.1,175.9,224.5,182.6,235,182.6z"/>
	<path class="st5" d="M415.7,0H54.3c-4.1,0-7.5,3.4-7.5,7.5v375c0,4.1,3.4,7.5,7.5,7.5h361.4c4.1,0,7.5-3.4,7.5-7.5V7.5
		C423.2,3.4,419.9,0,415.7,0z M408.2,375H61.8V15h346.4L408.2,375L408.2,375z"/>
	<path class="st5" d="M84.3,360h301.4c4.1,0,7.5-3.4,7.5-7.5v-315c0-4.1-3.4-7.5-7.5-7.5H84.3c-4.1,0-7.5,3.4-7.5,7.5v315
		C76.8,356.6,80.1,360,84.3,360z M91.8,45h286.4v300H91.8V45z"/>
	<path class="st5" d="M235,302c-4.1,0-7.5,3.4-7.5,7.5v13c0,4.1,3.4,7.5,7.5,7.5s7.5-3.4,7.5-7.5v-13C242.5,305.4,239.1,302,235,302
		z"/>
</g>
</svg>
