<?xml version="1.0" encoding="utf-8"?>
<!-- Generator: Adobe Illustrator 19.2.1, SVG Export Plug-In . SVG Version: 6.00 Build 0)  -->
<svg version="1.1" id="Capa_1" xmlns="http://www.w3.org/2000/svg" xmlns:xlink="http://www.w3.org/1999/xlink" x="0px" y="0px"
	 viewBox="0 0 470 470" style="enable-background:new 0 0 470 470;" xml:space="preserve">
<style type="text/css">
	.st0{fill:#00A58D;}
	.st1{fill:#15DEB0;}
	.st2{fill:#00C3AD;}
	.st3{fill:#082947;}
</style>
<g>
	<path class="st0" d="M382.4,252.4c-4,0.9-8.1-1.6-9-5.6c-4.9,1-9.8,2-14.7,3c0,0,0,0,0,0.1c0.7,4.1-2,8-6,8.7
		c-25.9,4.7-52.4,7.9-78.7,9.5v43.7c0,4.1-3.4,7.5-7.5,7.5h-60c-4.1,0-7.5-3.4-7.5-7.5v-43.5C140,264.9,82.1,253.8,26.4,235v140.3
		c42.3,3.6,76.1,37.4,79.7,79.7h260.6c3.6-42.3,37.4-76.1,79.7-79.7V234C425.5,241.2,404,247.4,382.4,252.4z"/>
	<path class="st1" d="M379,237.7c25.7-6,51.3-13.6,76-22.7V107.5c0-12.4-10.1-22.5-22.5-22.5h-395C25.1,85,15,95.1,15,107.5v107.6
		c2,0.8,4.1,1.5,6.1,2.2c0.1,0,0.2,0.1,0.3,0.1c57.1,20.3,116.7,32.3,177.5,35.8v-31.5c0-4.1,3.4-7.5,7.5-7.5h60
		c4.1,0,7.5,3.4,7.5,7.5V253c25.4-1.6,51-4.6,76-9.2c4.1-0.7,7.9,1.9,8.7,6c4.9-1,9.8-2,14.7-3C372.5,242.7,375,238.7,379,237.7z
		 M53,160.5c-4.1,0-7.5-3.4-7.5-7.5c0-4.1,3.4-7.5,7.5-7.5s7.5,3.4,7.5,7.5C60.5,157.1,57.1,160.5,53,160.5z M83,130.5
		c-4.1,0-7.5-3.4-7.5-7.5s3.4-7.5,7.5-7.5s7.5,3.4,7.5,7.5C90.5,127.1,87.1,130.5,83,130.5z"/>
	<path class="st0" d="M167.5,70V37.5c0-4.1,3.4-7.5,7.5-7.5h120c4.1,0,7.5,3.4,7.5,7.5V70h15V22.5c0-4.1-3.4-7.5-7.5-7.5H160
		c-4.1,0-7.5,3.4-7.5,7.5V70H167.5z"/>
	<rect x="213.9" y="289.2" class="st2" width="45" height="15"/>
	<rect x="213.9" y="229.2" class="st0" width="45" height="45"/>
	<path class="st3" d="M432.5,70h-100V22.5C332.5,10.1,322.4,0,310,0H160c-12.4,0-22.5,10.1-22.5,22.5V70h-100
		C16.8,70,0,86.8,0,107.5v112.8c0,3.1,1.9,5.9,4.9,7c2.2,0.8,4.4,1.6,6.6,2.4v202.7c0,20.7,16.8,37.5,37.5,37.5h375
		c20.7,0,37.5-16.8,37.5-37.5V228.7c1.2-0.5,2.5-0.9,3.7-1.4c2.9-1.1,4.9-3.9,4.9-7V107.5C470,86.8,453.2,70,432.5,70z M423.9,455
		h-42.1c3.5-34,30.6-61.1,64.6-64.6v42.1C446.4,444.9,436.3,455,423.9,455z M366.8,455H106.1c-3.6-42.3-37.4-76.1-79.7-79.7V235
		c55.7,18.8,113.6,29.9,172.5,33.2v43.5c0,4.1,3.4,7.5,7.5,7.5h60c4.1,0,7.5-3.4,7.5-7.5V268c26.3-1.6,52.8-4.7,78.7-9.5
		c4.1-0.7,6.8-4.7,6-8.7c0,0,0,0,0-0.1c-0.8-4-4.7-6.7-8.7-6c-25.1,4.6-50.6,7.7-76,9.2v-31.3c0-4.1-3.4-7.5-7.5-7.5h-60
		c-4.1,0-7.5,3.4-7.5,7.5v31.5c-60.8-3.4-120.4-15.4-177.5-35.8c-0.1,0-0.2-0.1-0.3-0.1c-2-0.7-4.1-1.5-6.1-2.2V107.5
		C15,95.1,25.1,85,37.5,85h395c12.4,0,22.5,10.1,22.5,22.5v107.6c-24.7,9.1-50.2,16.7-76,22.7c-4,0.9-6.5,4.9-5.6,9
		c0.9,4.1,5,6.6,9,5.7c21.6-5,43.1-11.1,64-18.3v141.3C404.2,378.9,370.4,412.7,366.8,455z M213.9,304.2v-15h45v15H213.9z
		 M258.9,274.2h-45v-45h45V274.2z M26.4,390.4c34,3.5,61.1,30.6,64.6,64.6H48.9c-12.4,0-22.5-10.1-22.5-22.5V390.4z M160,15h150
		c4.1,0,7.5,3.4,7.5,7.5V70h-15V37.5c0-4.1-3.4-7.5-7.5-7.5H175c-4.1,0-7.5,3.4-7.5,7.5V70h-15V22.5C152.5,18.4,155.9,15,160,15z
		 M287.5,70h-105V45h105V70z"/>
	<circle class="st3" cx="83" cy="123" r="7.5"/>
	<circle class="st3" cx="53" cy="153" r="7.5"/>
	<path class="st1" d="M48.9,455H91c-3.5-34-30.6-61.1-64.6-64.6v42.1C26.4,444.9,36.5,455,48.9,455z"/>
	<path class="st1" d="M446.4,390.4c-34,3.5-61.1,30.6-64.6,64.6h42.1c12.4,0,22.5-10.1,22.5-22.5V390.4z"/>
</g>
</svg>
