<?xml version="1.0" encoding="utf-8"?>
<!-- Generator: Adobe Illustrator 19.2.1, SVG Export Plug-In . SVG Version: 6.00 Build 0)  -->
<svg version="1.1" id="Capa_1" xmlns="http://www.w3.org/2000/svg" xmlns:xlink="http://www.w3.org/1999/xlink" x="0px" y="0px"
	 viewBox="0 0 465 465" style="enable-background:new 0 0 465 465;" xml:space="preserve">
<style type="text/css">
	.st0{fill:#00C3AD;}
	.st1{fill:#C1E8E6;}
	.st2{fill:#15DEB0;}
	.st3{fill:#082947;}
</style>
<g>
	<path class="st0" d="M232.5,280.5c-12.4,0-22.5,10.1-22.5,22.5s10.1,22.5,22.5,22.5S255,315.4,255,303S244.9,280.5,232.5,280.5z"/>
	<path class="st1" d="M317.6,89.5h-236c-3.2,18.7-17.9,33.4-36.6,36.6v212.8c18.7,3.2,33.4,17.9,36.6,36.6h301.8
		c3.2-18.7,17.9-33.4,36.6-36.6V126.1c-18.7-3.2-33.4-17.9-36.6-36.6h-35.8c-4.1,0-7.5-3.4-7.5-7.5c0,0-15,0-15,0
		C325.1,86.1,321.7,89.5,317.6,89.5z M156.6,158.4l23.3-30c1.4-1.8,3.6-2.9,5.9-2.9s4.5,1.1,5.9,2.9l17.4,22.4l17.4-22.4
		c1.4-1.8,3.6-2.9,5.9-2.9s4.5,1.1,5.9,2.9l17.4,22.4l17.4-22.4c1.4-1.8,3.6-2.9,5.9-2.9s4.5,1.1,5.9,2.9l23.3,30
		c2.5,3.3,2,8-1.3,10.5c-3.3,2.5-8,2-10.5-1.3l-17.4-22.4l-17.4,22.4c-1.4,1.8-3.6,2.9-5.9,2.9s-4.5-1.1-5.9-2.9l-17.4-22.4
		l-17.4,22.4c-1.4,1.8-3.6,2.9-5.9,2.9c-2.3,0-4.5-1.1-5.9-2.9l-17.4-22.4l-17.4,22.4c-1.5,1.9-3.7,2.9-5.9,2.9
		c-1.6,0-3.2-0.5-4.6-1.6C154.6,166.4,154,161.7,156.6,158.4z M172.5,310.5h-55.1c-4.1,0-7.5-3.4-7.5-7.5s3.4-7.5,7.5-7.5h55.1
		c4.1,0,7.5,3.4,7.5,7.5S176.6,310.5,172.5,310.5z M232.5,340.5c-20.7,0-37.5-16.8-37.5-37.5s16.8-37.5,37.5-37.5S270,282.3,270,303
		S253.2,340.5,232.5,340.5z M347.6,310.5l-55.1,0c-4.1,0-7.5-3.4-7.5-7.5s3.4-7.5,7.5-7.5l55.1,0c4.1,0,7.5,3.4,7.5,7.5
		S351.7,310.5,347.6,310.5z M347.6,240.5H117.4c-4.1,0-7.5-3.4-7.5-7.5s3.4-7.5,7.5-7.5h230.2c4.1,0,7.5,3.4,7.5,7.5
		S351.7,240.5,347.6,240.5z M377.6,195.5c4.1,0,7.5,3.4,7.5,7.5s-3.4,7.5-7.5,7.5H87.4c-4.1,0-7.5-3.4-7.5-7.5s3.4-7.5,7.5-7.5
		H377.6z"/>
	<path class="st2" d="M15,405.5h435V59.5H15V405.5z M30,119.2c0-4.1,3.4-7.5,7.5-7.5c16.4,0,29.7-13.3,29.7-29.7
		c0-4.1,3.4-7.5,7.5-7.5h242.9c4.1,0,7.5,3.4,7.5,7.5h15c0-4.1,3.4-7.5,7.5-7.5h42.7c4.1,0,7.5,3.4,7.5,7.5
		c0,16.4,13.3,29.7,29.7,29.7c4.1,0,7.5,3.4,7.5,7.5v226.6c0,4.1-3.4,7.5-7.5,7.5c-16.4,0-29.7,13.3-29.7,29.7
		c0,4.1-3.4,7.5-7.5,7.5H74.7c-4.1,0-7.5-3.4-7.5-7.5c0-16.4-13.3-29.7-29.7-29.7c-4.1,0-7.5-3.4-7.5-7.5L30,119.2z"/>
	<path class="st3" d="M457.5,44.5H7.5C3.4,44.5,0,47.8,0,52V413c0,4.1,3.4,7.5,7.5,7.5h450c4.1,0,7.5-3.4,7.5-7.5V52
		C465,47.8,461.6,44.5,457.5,44.5z M450,405.5H15V59.5h435V405.5z"/>
	<path class="st3" d="M37.5,353.3c16.4,0,29.7,13.3,29.7,29.7c0,4.1,3.4,7.5,7.5,7.5h315.5c4.1,0,7.5-3.4,7.5-7.5
		c0-16.4,13.3-29.7,29.7-29.7c4.1,0,7.5-3.4,7.5-7.5V119.2c0-4.1-3.4-7.5-7.5-7.5c-16.4,0-29.7-13.3-29.7-29.7
		c0-4.1-3.4-7.5-7.5-7.5h-42.7c-4.1,0-7.5,3.4-7.5,7.5c0,4.1,3.4,7.5,7.5,7.5h35.8c3.2,18.7,17.9,33.4,36.6,36.6v212.8
		c-18.7,3.2-33.4,17.9-36.6,36.6H81.6c-3.2-18.7-17.9-33.4-36.6-36.6V126.1c18.7-3.2,33.4-17.9,36.6-36.6h236c4.1,0,7.5-3.4,7.5-7.5
		c0-4.1-3.4-7.5-7.5-7.5H74.7c-4.1,0-7.5,3.4-7.5,7.5c0,16.4-13.3,29.7-29.7,29.7c-4.1,0-7.5,3.4-7.5,7.5v226.6
		C30,349.9,33.4,353.3,37.5,353.3z"/>
	<path class="st3" d="M157.9,168.9c1.4,1.1,3,1.6,4.6,1.6c2.2,0,4.4-1,5.9-2.9l17.4-22.4l17.4,22.4c1.4,1.8,3.6,2.9,5.9,2.9
		s4.5-1.1,5.9-2.9l17.4-22.4l17.4,22.4c1.4,1.8,3.6,2.9,5.9,2.9s4.5-1.1,5.9-2.9l17.4-22.4l17.4,22.4c2.5,3.3,7.3,3.9,10.5,1.3
		c3.3-2.5,3.9-7.3,1.3-10.5l-23.3-30c-1.4-1.8-3.6-2.9-5.9-2.9s-4.5,1.1-5.9,2.9l-17.4,22.4l-17.4-22.4c-1.4-1.8-3.6-2.9-5.9-2.9
		s-4.5,1.1-5.9,2.9l-17.4,22.4l-17.4-22.4c-1.4-1.8-3.6-2.9-5.9-2.9s-4.5,1.1-5.9,2.9l-23.3,30C154,161.7,154.6,166.4,157.9,168.9z"
		/>
	<path class="st3" d="M347.6,225.5H117.4c-4.1,0-7.5,3.4-7.5,7.5s3.4,7.5,7.5,7.5h230.2c4.1,0,7.5-3.4,7.5-7.5
		S351.7,225.5,347.6,225.5z"/>
	<path class="st3" d="M79.9,203c0,4.1,3.4,7.5,7.5,7.5h290.2c4.1,0,7.5-3.4,7.5-7.5s-3.4-7.5-7.5-7.5H87.4
		C83.3,195.5,79.9,198.9,79.9,203z"/>
	<path class="st3" d="M232.5,265.5c-20.7,0-37.5,16.8-37.5,37.5s16.8,37.5,37.5,37.5S270,323.7,270,303S253.2,265.5,232.5,265.5z
		 M232.5,325.5c-12.4,0-22.5-10.1-22.5-22.5s10.1-22.5,22.5-22.5S255,290.6,255,303S244.9,325.5,232.5,325.5z"/>
	<path class="st3" d="M172.5,295.5h-55.1c-4.1,0-7.5,3.4-7.5,7.5s3.4,7.5,7.5,7.5h55.1c4.1,0,7.5-3.4,7.5-7.5
		S176.6,295.5,172.5,295.5z"/>
	<path class="st3" d="M347.6,295.5l-55.1,0c-4.1,0-7.5,3.4-7.5,7.5s3.4,7.5,7.5,7.5l55.1,0c4.1,0,7.5-3.4,7.5-7.5
		S351.7,295.5,347.6,295.5z"/>
</g>
</svg>
