<?xml version="1.0" encoding="utf-8"?>
<!-- Generator: Adobe Illustrator 19.2.1, SVG Export Plug-In . SVG Version: 6.00 Build 0)  -->
<svg version="1.1" id="Capa_1" xmlns="http://www.w3.org/2000/svg" xmlns:xlink="http://www.w3.org/1999/xlink" x="0px" y="0px"
	 viewBox="0 0 468.7 468.7" style="enable-background:new 0 0 468.7 468.7;" xml:space="preserve">
<style type="text/css">
	.st0{fill:#F2EBD9;}
	.st1{fill:#15DEB0;}
	.st2{fill:#FFFFFF;}
	.st3{fill:#082947;}
	.st4{fill:#00A58D;}
	.st5{fill:#98D9D5;}
	.st6{fill:#FFCC75;}
</style>
<g>
	<path class="st0" d="M196.9,424.5h75v-34.4c0-4.1,3.4-7.5,7.5-7.5v-15h-82.5V424.5z"/>
	<path class="st1" d="M453.7,302.4H15v27.7c0,12.4,10.1,22.5,22.5,22.5h393.7c12.4,0,22.5-10.1,22.5-22.5V302.4z"/>
	<path class="st0" d="M309.4,232.4c-4.1,0-7.5-3.4-7.5-7.5V205c0,0,0,0,0-0.1c0-0.1,0-0.2,0-0.3c0-0.2,0-0.3,0-0.5
		c0.1-0.7,0.3-1.4,0.5-2l23.9-57.3c0,0,0,0,0-0.1l17-40.9c1.2-2.8,3.9-4.6,6.9-4.6s5.8,1.8,6.9,4.6l17,40.9c0,0,0,0.1,0,0.1
		l23.9,57.3c0.3,0.6,0.4,1.3,0.5,2c0,0.2,0,0.4,0,0.5c0,0.1,0,0.2,0,0.3c0,0,0,0,0,0.1v19.9c0,4.1-3.4,7.5-7.5,7.5v15h22.5V84.2
		H286.9v163.1h22.5V232.4z"/>
	<path class="st2" d="M15,287.4h438.7V66.7c0-12.4-10.1-22.5-22.5-22.5H37.5C25.1,44.2,15,54.3,15,66.7V287.4z M271.9,76.7
		c0-4.1,3.4-7.5,7.5-7.5h141.9c4.1,0,7.5,3.4,7.5,7.5v178.1c0,4.1-3.4,7.5-7.5,7.5H279.4c-4.1,0-7.5-3.4-7.5-7.5V76.7z M47.5,69.2
		H240c4.1,0,7.5,3.4,7.5,7.5s-3.4,7.5-7.5,7.5H47.5c-4.1,0-7.5-3.4-7.5-7.5S43.4,69.2,47.5,69.2z M47.5,104.9H240
		c4.1,0,7.5,3.4,7.5,7.5s-3.4,7.5-7.5,7.5H47.5c-4.1,0-7.5-3.4-7.5-7.5S43.4,104.9,47.5,104.9z M47.5,140.5h96.2
		c4.1,0,7.5,3.4,7.5,7.5s-3.4,7.5-7.5,7.5H47.5c-4.1,0-7.5-3.4-7.5-7.5S43.4,140.5,47.5,140.5z M47.5,176.1H240
		c4.1,0,7.5,3.4,7.5,7.5s-3.4,7.5-7.5,7.5H47.5c-4.1,0-7.5-3.4-7.5-7.5S43.4,176.1,47.5,176.1z M47.5,211.8H240
		c4.1,0,7.5,3.4,7.5,7.5s-3.4,7.5-7.5,7.5H47.5c-4.1,0-7.5-3.4-7.5-7.5S43.4,211.8,47.5,211.8z M47.5,247.4h96.2
		c4.1,0,7.5,3.4,7.5,7.5c0,4.1-3.4,7.5-7.5,7.5H47.5c-4.1,0-7.5-3.4-7.5-7.5S43.4,247.4,47.5,247.4z"/>
	<path class="st3" d="M431.2,29.2H37.5C16.8,29.2,0,46.1,0,66.7v263.3c0,20.7,16.8,37.5,37.5,37.5h144.4v56.9h-32.5
		c-4.1,0-7.5,3.4-7.5,7.5s3.4,7.5,7.5,7.5h170c4.1,0,7.5-3.4,7.5-7.5s-3.4-7.5-7.5-7.5h-32.5v-34.4c0-4.1-3.4-7.5-7.5-7.5
		s-7.5,3.4-7.5,7.5v34.4h-75v-56.9h234.4c20.7,0,37.5-16.8,37.5-37.5V66.7C468.7,46.1,451.9,29.2,431.2,29.2z M431.2,352.6H37.5
		c-12.4,0-22.5-10.1-22.5-22.5v-27.7h438.7v27.7C453.7,342.5,443.6,352.6,431.2,352.6z M37.5,44.2h393.7c12.4,0,22.5,10.1,22.5,22.5
		v220.6H15V66.7C15,54.3,25.1,44.2,37.5,44.2z"/>
	<path class="st3" d="M47.5,84.2H240c4.1,0,7.5-3.4,7.5-7.5s-3.4-7.5-7.5-7.5H47.5c-4.1,0-7.5,3.4-7.5,7.5S43.4,84.2,47.5,84.2z"/>
	<path class="st3" d="M47.5,119.9H240c4.1,0,7.5-3.4,7.5-7.5s-3.4-7.5-7.5-7.5H47.5c-4.1,0-7.5,3.4-7.5,7.5S43.4,119.9,47.5,119.9z"
		/>
	<path class="st3" d="M47.5,155.5h96.2c4.1,0,7.5-3.4,7.5-7.5s-3.4-7.5-7.5-7.5H47.5c-4.1,0-7.5,3.4-7.5,7.5S43.4,155.5,47.5,155.5z
		"/>
	<path class="st3" d="M47.5,191.1H240c4.1,0,7.5-3.4,7.5-7.5s-3.4-7.5-7.5-7.5H47.5c-4.1,0-7.5,3.4-7.5,7.5S43.4,191.1,47.5,191.1z"
		/>
	<path class="st3" d="M47.5,226.8H240c4.1,0,7.5-3.4,7.5-7.5s-3.4-7.5-7.5-7.5H47.5c-4.1,0-7.5,3.4-7.5,7.5S43.4,226.8,47.5,226.8z"
		/>
	<path class="st3" d="M47.5,262.4h96.2c4.1,0,7.5-3.4,7.5-7.5s-3.4-7.5-7.5-7.5H47.5c-4.1,0-7.5,3.4-7.5,7.5S43.4,262.4,47.5,262.4z
		"/>
	<path class="st4" d="M383.7,224.9v-9.1c-2.7,0.6-5.6,0.9-8.4,0.9c-6.2,0-12.2-1.4-17.5-4v12.2c0,4.1-3.4,7.5-7.5,7.5
		s-7.5-3.4-7.5-7.5v-12.2c-5.3,2.6-11.3,4-17.5,4c-2.9,0-5.7-0.3-8.4-0.9v9.1c0,4.1-3.4,7.5-7.5,7.5v15h81.9v-15
		C387.1,232.4,383.7,229,383.7,224.9z"/>
	<polygon class="st5" points="344.5,140.2 356.1,140.2 350.3,126.2 	"/>
	<path class="st6" d="M381.4,201l-19.1-45.8h-24.1L319.2,201c2,0.5,4,0.8,6.1,0.8c7.8,0,14.8-3.5,18.9-9.2c1.4-2,3.7-3.2,6.1-3.2
		s4.7,1.2,6.1,3.2c4.1,5.8,11.1,9.2,18.9,9.2C377.4,201.7,379.5,201.5,381.4,201z"/>
	<path class="st3" d="M316.9,224.9v-9.1c2.7,0.6,5.6,0.9,8.4,0.9c6.2,0,12.2-1.4,17.5-4v12.2c0,4.1,3.4,7.5,7.5,7.5s7.5-3.4,7.5-7.5
		v-12.2c5.3,2.6,11.3,4,17.5,4c2.9,0,5.7-0.3,8.4-0.9v9.1c0,4.1,3.4,7.5,7.5,7.5s7.5-3.4,7.5-7.5V205c0,0,0,0,0-0.1
		c0-0.1,0-0.2,0-0.3c0-0.2,0-0.3,0-0.5c-0.1-0.7-0.3-1.4-0.5-2l-23.9-57.3c0,0,0-0.1,0-0.1l-17-40.9c-1.2-2.8-3.9-4.6-6.9-4.6
		s-5.8,1.8-6.9,4.6l-17,40.9c0,0,0,0,0,0.1l-23.9,57.3c-0.3,0.6-0.4,1.3-0.5,2c0,0.2,0,0.4,0,0.5c0,0.1,0,0.2,0,0.3c0,0,0,0,0,0.1
		v19.9c0,4.1,3.4,7.5,7.5,7.5S316.9,229,316.9,224.9z M356.4,192.5c-1.4-2-3.7-3.2-6.1-3.2s-4.7,1.2-6.1,3.2
		c-4.1,5.8-11.1,9.2-18.9,9.2c-2.1,0-4.1-0.3-6.1-0.8l19.1-45.8h24.1l19.1,45.8c-2,0.5-4,0.8-6.1,0.8
		C367.6,201.7,360.5,198.3,356.4,192.5z M344.5,140.2l5.8-13.9l5.8,13.9H344.5z"/>
	<path class="st3" d="M279.4,262.4h141.9c4.1,0,7.5-3.4,7.5-7.5V76.7c0-4.1-3.4-7.5-7.5-7.5H279.4c-4.1,0-7.5,3.4-7.5,7.5v178.1
		C271.9,259,275.2,262.4,279.4,262.4z M286.9,84.2h126.9v163.1H286.9V84.2z"/>
</g>
</svg>
