<?xml version="1.0" encoding="utf-8"?>
<!-- Generator: Adobe Illustrator 19.2.1, SVG Export Plug-In . SVG Version: 6.00 Build 0)  -->
<svg version="1.1" id="Capa_1" xmlns="http://www.w3.org/2000/svg" xmlns:xlink="http://www.w3.org/1999/xlink" x="0px" y="0px"
	 viewBox="0 0 470 470" style="enable-background:new 0 0 470 470;" xml:space="preserve">
<style type="text/css">
	.st0{fill:#15DEB0;}
	.st1{fill:#C1E8E6;}
	.st2{fill:#00A58D;}
	.st3{fill:#082947;}
	.st4{fill:#FFFFFF;}
</style>
<g>
	<path class="st0" d="M388.6,339.7l-22.2-62.1h-74.6L239.1,425h180l-20.4-57c-1.4-3.9,0.6-8.2,4.5-9.6l-5.1-14.1
		C394.2,345.7,390,343.6,388.6,339.7z"/>
	<path class="st1" d="M369.7,198.1c-0.3-0.8-0.4-1.7-0.4-2.5V105h-80.5v90.6c0,0.9-0.1,1.7-0.4,2.5l-83.8,234.2
		c-2.3,6.3-1.9,12.1,1,16.2s8.2,6.4,15,6.4h217c6.7,0,12-2.3,15-6.4s3.3-9.9,1-16.2L369.7,198.1z M290.1,237.7l13.7-38.2v-72
		c0-4.1,3.4-7.5,7.5-7.5s7.5,3.4,7.5,7.5v73.3c0,0.9-0.1,1.7-0.4,2.5l-14.1,39.4c-1.1,3.1-4,5-7.1,5c-0.8,0-1.7-0.1-2.5-0.4
		C290.8,245.9,288.7,241.6,290.1,237.7z M435.8,436.8c-1.4,2-3.7,3.2-6.1,3.2H228.4c-2.4,0-4.7-1.2-6.1-3.2c-1.4-2-1.8-4.5-0.9-6.8
		l58.1-162.3c1.1-3,3.9-5,7.1-5h85.2c3.2,0,6,2,7.1,5l24,67c1.4,3.9-0.6,8.2-4.5,9.6c0,0,5.1,14.1,5.1,14.1c3.9-1.4,8.2,0.6,9.6,4.5
		l24,67C437.6,432.3,437.2,434.8,435.8,436.8z"/>
	<path class="st2" d="M219.5,300.2c0,4.1-3.4,7.5-7.5,7.5l-165,0c-1.4,6.5-2,13.2-2,19.8c0,53.8,43.7,97.5,97.5,97.5
		c7.5,0,15.1-0.9,22.3-2.6c3.9-0.9,7.9,1.4,8.9,5.3c6.8-2.1,13.3-4.9,19.5-8.3l42.6-119.2C235.9,300.2,219.5,300.2,219.5,300.2z"/>
	<path class="st1" d="M190.5,427.3l2.8-7.9c-6.1,3.4-12.7,6.2-19.5,8.3c0,0.1,0.1,0.2,0.1,0.3c0.9,4-1.6,8.1-5.6,9
		c-8.4,2-17.1,3-25.8,3C80.5,440,30,389.5,30,327.5c0-9.9,1.3-19.7,3.9-29.3c0.9-3.3,3.9-5.5,7.2-5.5l170.9,0c4.1,0,7.5,3.4,7.5,7.5
		h16.4l17.7-49.4c-3.5-5-7.2-9.7-11.3-14.2c-1.4,1.4-3.3,2.1-5.2,2.1c-1.9,0-3.8-0.7-5.3-2.1c-10.9-10.7-23.5-19.3-37.4-25.5
		c-2.7-1.2-4.4-3.9-4.4-6.8V15H95v189.2c0,3-1.7,5.6-4.4,6.8C44.7,231.5,15,277.3,15,327.5C15,397.8,72.2,455,142.5,455
		c8.5,0,17.1-0.8,25.3-2.5c4-0.8,7.9,1.7,8.8,5.7c4.9-1.3,9.8-2.8,14.5-4.7C187.4,445.9,187.1,436.6,190.5,427.3z M110,37.5
		c0-4.1,3.4-7.5,7.5-7.5s7.5,3.4,7.5,7.5v60c0,4.1-3.4,7.5-7.5,7.5s-7.5-3.4-7.5-7.5V37.5z M48.3,266.1
		c11.9-18.2,28.6-32.5,48.4-41.4l13.3-6v-91.3c0-4.1,3.4-7.5,7.5-7.5s7.5,3.4,7.5,7.5v96.1c0,3-1.7,5.6-4.4,6.8l-17.8,7.9
		c-17.2,7.7-31.7,20.1-42,35.9c-1.4,2.2-3.8,3.4-6.3,3.4c-1.4,0-2.8-0.4-4.1-1.2C47,274.2,46,269.6,48.3,266.1z"/>
	<path class="st3" d="M467.7,427.3l-83.4-233V105h2.5c4.1,0,7.5-3.4,7.5-7.5s-3.4-7.5-7.5-7.5H271.3c-4.1,0-7.5,3.4-7.5,7.5
		s3.4,7.5,7.5,7.5h2.5v89.3l-20.2,56.5l-17.7,49.4l-42.6,119.2l-2.8,7.9c-3.3,9.3-3,18.6,0.7,26.2c0.6,1.3,1.4,2.6,2.2,3.7
		c5.7,8.1,15.6,12.8,27.2,12.8h217c11.6,0,21.5-4.7,27.2-12.8C470.5,449.1,471.6,438.2,467.7,427.3z M452.5,448.6
		c-2.9,4.1-8.2,6.4-15,6.4h-217c-6.7,0-12-2.3-15-6.4s-3.3-9.9-1-16.2l83.8-234.2c0.3-0.8,0.4-1.7,0.4-2.5V105h80.5v90.6
		c0,0.9,0.1,1.7,0.4,2.5l83.8,234.2C455.8,438.7,455.4,444.4,452.5,448.6z"/>
	<path class="st4" d="M294.7,247.3c0.8,0.3,1.7,0.4,2.5,0.4c3.1,0,6-1.9,7.1-5l14.1-39.4c0.3-0.8,0.4-1.7,0.4-2.5v-73.3
		c0-4.1-3.4-7.5-7.5-7.5s-7.5,3.4-7.5,7.5v72l-13.7,38.2C288.7,241.6,290.8,245.9,294.7,247.3z"/>
	<path class="st3" d="M412.8,362.9c-1.4-3.9-5.7-5.9-9.6-4.5c-3.9,1.4-5.9,5.7-4.5,9.6l20.4,57h-180l52.7-147.3h74.6l22.2,62.1
		c1.4,3.9,5.7,5.9,9.6,4.5c3.9-1.4,5.9-5.7,4.5-9.6l-24-67c-1.1-3-3.9-5-7.1-5h-85.2c-3.2,0-6,2-7.1,5L221.3,430
		c-0.8,2.3-0.5,4.9,0.9,6.8c1.4,2,3.7,3.2,6.1,3.2h201.3c2.4,0,4.7-1.2,6.1-3.2s1.8-4.5,0.9-6.8L412.8,362.9z"/>
	<path class="st4" d="M50.5,276.5c1.3,0.8,2.7,1.2,4.1,1.2c2.5,0,4.9-1.2,6.3-3.4c10.3-15.8,24.8-28.2,42-35.9l17.8-7.9
		c2.7-1.2,4.4-3.9,4.4-6.8v-96.1c0-4.1-3.4-7.5-7.5-7.5s-7.5,3.4-7.5,7.5v91.3l-13.3,6c-19.8,8.8-36.6,23.2-48.4,41.4
		C46,269.6,47,274.2,50.5,276.5z"/>
	<path class="st4" d="M117.5,105c4.1,0,7.5-3.4,7.5-7.5v-60c0-4.1-3.4-7.5-7.5-7.5s-7.5,3.4-7.5,7.5v60
		C110,101.6,113.4,105,117.5,105z"/>
	<path class="st3" d="M167.8,452.5c-8.3,1.7-16.8,2.5-25.3,2.5C72.2,455,15,397.8,15,327.5c0-50.2,29.7-96,75.6-116.5
		c2.7-1.2,4.4-3.9,4.4-6.8V15h95v189.2c0,3,1.7,5.6,4.4,6.8c13.9,6.2,26.5,14.8,37.4,25.5c1.5,1.4,3.4,2.1,5.3,2.1
		c1.9,0,3.7-0.7,5.2-2.1c0.1-0.1,0.1-0.1,0.2-0.2c2.9-3,2.9-7.7-0.1-10.6c-11-10.8-23.5-19.7-37.3-26.4V15h2.5
		c4.1,0,7.5-3.4,7.5-7.5S211.7,0,207.5,0h-130C73.4,0,70,3.4,70,7.5s3.4,7.5,7.5,7.5H80v184.4C31.3,223.2,0,273,0,327.5
		C0,406.1,63.9,470,142.5,470c9.5,0,19-0.9,28.3-2.8c4.1-0.8,6.7-4.8,5.9-8.8c0-0.1,0-0.1-0.1-0.2
		C175.7,454.2,171.8,451.7,167.8,452.5z"/>
	<path class="st3" d="M164.9,422.4c-7.3,1.7-14.8,2.6-22.3,2.6C88.7,425,45,381.3,45,327.5c0-6.7,0.7-13.3,2-19.8l165,0
		c4.1,0,7.5-3.4,7.5-7.5c0-4.1-3.4-7.5-7.5-7.5l-170.9,0c-3.4,0-6.4,2.3-7.2,5.5c-2.6,9.5-3.9,19.4-3.9,29.3
		c0,62,50.5,112.5,112.5,112.5c8.7,0,17.4-1,25.8-3c4-0.9,6.5-5,5.6-9c0-0.1-0.1-0.2-0.1-0.3C172.7,423.9,168.8,421.5,164.9,422.4z"
		/>
</g>
</svg>
