<?xml version="1.0" encoding="utf-8"?>
<!-- Generator: Adobe Illustrator 19.2.1, SVG Export Plug-In . SVG Version: 6.00 Build 0)  -->
<svg version="1.1" id="Calque_1" xmlns="http://www.w3.org/2000/svg" xmlns:xlink="http://www.w3.org/1999/xlink" x="0px" y="0px"
	 viewBox="0 0 308.6 300" style="enable-background:new 0 0 308.6 300;" xml:space="preserve">
<style type="text/css">
	.st0{fill:#FFFFFF;}
	.st1{fill:#15DEB0;}
</style>
<path class="st0" d="M58.9,261.5l-45.2-78.4c-10-17.4-10-38.8,0-56.2l45.2-78.4c10-17.4,28.6-28.1,48.6-28.1h90.5
	c20.1,0,38.6,10.7,48.6,28.1l45.2,78.4c10,17.4,10,38.8,0,56.2l-45.2,78.4c-10,17.4-28.6,28.1-48.6,28.1h-90.5
	C87.5,289.6,69,278.9,58.9,261.5z"/>
<g>
	<path class="st1" d="M115.9,88.2c0-2,1.6-3.8,3.8-3.8h48.7c24.8,0,45.2,20.2,45.2,44.6c0,25-20.4,45.4-45,45.4h-21.2v47.5
		c0,2-1.8,3.8-3.8,3.8h-23.8c-2.2,0-3.8-1.8-3.8-3.8V88.2z M166.6,145c8.7,0,16-6.9,16-16c0-8.5-7.3-14.9-16-14.9h-19.2V145H166.6z"
		/>
</g>
</svg>
