<?xml version="1.0" encoding="utf-8"?>
<!-- Generator: Adobe Illustrator 19.2.1, SVG Export Plug-In . SVG Version: 6.00 Build 0)  -->
<svg version="1.1" id="Capa_1" xmlns="http://www.w3.org/2000/svg" xmlns:xlink="http://www.w3.org/1999/xlink" x="0px" y="0px"
	 viewBox="0 0 637.9 622.2" style="enable-background:new 0 0 637.9 622.2;" xml:space="preserve">
<style type="text/css">
	.st0{fill:#C1E8E6;}
	.st1{fill:#15DEB0;}
	.st2{fill:#00A58D;}
	.st3{fill:#082947;}
	.st4{fill:#FFFFFF;}
</style>
<g>
	<path class="st0" d="M307.5,144.8c-1.5,1.5-3.4,2.2-5.3,2.2s-3.8-0.7-5.3-2.2c-2.9-2.9-2.9-7.7,0-10.6l21.6-21.6h-38.8l-75,75h38.8
		l32.2-32.2c2.9-2.9,7.7-2.9,10.6,0c2.9,2.9,2.9,7.7,0,10.6l-21.6,21.6h128.1v-75h-53.1L307.5,144.8z"/>
	<polygon class="st0" points="164.1,112.6 164.1,187.6 183.5,187.6 258.5,112.6 	"/>
	<rect x="345.9" y="282.6" class="st1" width="47" height="15"/>
	<path class="st1" d="M392.9,400.1v-57.5h-47v130h47v-42.5c0-4.1,3.4-7.5,7.5-7.5v-15C396.2,407.6,392.9,404.2,392.9,400.1z"/>
	<rect x="254.6" y="342.6" class="st1" width="46.2" height="42.5"/>
	<rect x="163.4" y="342.6" class="st1" width="46.2" height="42.5"/>
	<rect x="254.6" y="430.1" class="st1" width="46.2" height="42.5"/>
	<rect x="163.4" y="430.1" class="st1" width="46.2" height="42.5"/>
	<path class="st2" d="M410.4,72.6H145.9c-12.4,0-22.5,10.1-22.5,22.5v395c0,12.4,10.1,22.5,22.5,22.5h264.5
		c12.4,0,22.5-10.1,22.5-22.5v-395C432.9,82.6,422.8,72.6,410.4,72.6z M224.6,480.1c0,4.1-3.4,7.5-7.5,7.5h-61.2
		c-4.1,0-7.5-3.4-7.5-7.5v-57.5c0-4.1,3.4-7.5,7.5-7.5h61.2c4.1,0,7.5,3.4,7.5,7.5V480.1z M224.6,392.6c0,4.1-3.4,7.5-7.5,7.5h-61.2
		c-4.1,0-7.5-3.4-7.5-7.5v-57.5c0-4.1,3.4-7.5,7.5-7.5h61.2c4.1,0,7.5,3.4,7.5,7.5V392.6z M217.1,242.6h-60.5
		c-4.1,0-7.5-3.4-7.5-7.5s3.4-7.5,7.5-7.5h60.5c4.1,0,7.5,3.4,7.5,7.5S221.3,242.6,217.1,242.6z M315.9,480.1c0,4.1-3.4,7.5-7.5,7.5
		h-61.2c-4.1,0-7.5-3.4-7.5-7.5v-57.5c0-4.1,3.4-7.5,7.5-7.5h61.2c4.1,0,7.5,3.4,7.5,7.5V480.1z M315.9,392.6c0,4.1-3.4,7.5-7.5,7.5
		h-61.2c-4.1,0-7.5-3.4-7.5-7.5v-57.5c0-4.1,3.4-7.5,7.5-7.5h61.2c4.1,0,7.5,3.4,7.5,7.5V392.6z M407.9,400.1c0,4.1-3.4,7.5-7.5,7.5
		v15c4.1,0,7.5,3.4,7.5,7.5v50c0,4.1-3.4,7.5-7.5,7.5h-62c-4.1,0-7.5-3.4-7.5-7.5v-145c0-4.1,3.4-7.5,7.5-7.5h62
		c4.1,0,7.5,3.4,7.5,7.5V400.1z M407.9,305.1c0,4.1-3.4,7.5-7.5,7.5h-62c-4.1,0-7.5-3.4-7.5-7.5v-30c0-4.1,3.4-7.5,7.5-7.5h62
		c4.1,0,7.5,3.4,7.5,7.5V305.1z M400.4,242.6H247.1c-4.1,0-7.5-3.4-7.5-7.5s3.4-7.5,7.5-7.5h153.2c4.1,0,7.5,3.4,7.5,7.5
		S404.5,242.6,400.4,242.6z M407.9,195.1c0,4.1-3.4,7.5-7.5,7.5H156.6c-4.1,0-7.5-3.4-7.5-7.5v-90c0-4.1,3.4-7.5,7.5-7.5h243.8
		c4.1,0,7.5,3.4,7.5,7.5V195.1z"/>
	<path class="st3" d="M400.4,267.6h-62c-4.1,0-7.5,3.4-7.5,7.5v30c0,4.1,3.4,7.5,7.5,7.5h62c4.1,0,7.5-3.4,7.5-7.5v-30
		C407.9,270.9,404.5,267.6,400.4,267.6z M392.9,297.6h-47v-15h47V297.6z"/>
	<path class="st3" d="M217.1,415.1h-61.2c-4.1,0-7.5,3.4-7.5,7.5v57.5c0,4.1,3.4,7.5,7.5,7.5h61.2c4.1,0,7.5-3.4,7.5-7.5v-57.5
		C224.6,418.4,221.3,415.1,217.1,415.1z M209.6,472.6h-46.2v-42.5h46.2V472.6z"/>
	<path class="st3" d="M308.4,415.1h-61.2c-4.1,0-7.5,3.4-7.5,7.5v57.5c0,4.1,3.4,7.5,7.5,7.5h61.2c4.1,0,7.5-3.4,7.5-7.5v-57.5
		C315.9,418.4,312.5,415.1,308.4,415.1z M300.9,472.6h-46.2v-42.5h46.2V472.6z"/>
	<path class="st3" d="M217.1,327.6h-61.2c-4.1,0-7.5,3.4-7.5,7.5v57.5c0,4.1,3.4,7.5,7.5,7.5h61.2c4.1,0,7.5-3.4,7.5-7.5v-57.5
		C224.6,330.9,221.3,327.6,217.1,327.6z M209.6,385.1h-46.2v-42.5h46.2V385.1z"/>
	<path class="st3" d="M308.4,327.6h-61.2c-4.1,0-7.5,3.4-7.5,7.5v57.5c0,4.1,3.4,7.5,7.5,7.5h61.2c4.1,0,7.5-3.4,7.5-7.5v-57.5
		C315.9,330.9,312.5,327.6,308.4,327.6z M300.9,385.1h-46.2v-42.5h46.2V385.1z"/>
	<path class="st3" d="M400.4,327.6h-62c-4.1,0-7.5,3.4-7.5,7.5v145c0,4.1,3.4,7.5,7.5,7.5h62c4.1,0,7.5-3.4,7.5-7.5v-50
		c0-4.1-3.4-7.5-7.5-7.5s-7.5,3.4-7.5,7.5v42.5h-47v-130h47v57.5c0,4.1,3.4,7.5,7.5,7.5s7.5-3.4,7.5-7.5v-65
		C407.9,330.9,404.5,327.6,400.4,327.6z"/>
	<path class="st3" d="M410.4,57.6H145.9c-20.7,0-37.5,16.8-37.5,37.5v395c0,20.7,16.8,37.5,37.5,37.5h264.5
		c20.7,0,37.5-16.8,37.5-37.5v-395C447.9,74.4,431.1,57.6,410.4,57.6z M432.9,490.1c0,12.4-10.1,22.5-22.5,22.5H145.9
		c-12.4,0-22.5-10.1-22.5-22.5v-395c0-12.4,10.1-22.5,22.5-22.5h264.5c12.4,0,22.5,10.1,22.5,22.5V490.1z"/>
	<polygon class="st4" points="258.5,112.6 183.5,187.6 204.7,187.6 279.7,112.6 	"/>
	<path class="st4" d="M296.9,144.8c1.5,1.5,3.4,2.2,5.3,2.2s3.8-0.7,5.3-2.2l32.2-32.2h-21.2l-21.6,21.6
		C294,137.1,294,141.8,296.9,144.8z"/>
	<path class="st4" d="M286.3,155.4c-2.9-2.9-7.7-2.9-10.6,0l-32.2,32.2h21.2l21.6-21.6C289.3,163,289.3,158.3,286.3,155.4z"/>
	<path class="st3" d="M400.4,97.6H156.6c-4.1,0-7.5,3.4-7.5,7.5v90c0,4.1,3.4,7.5,7.5,7.5h243.8c4.1,0,7.5-3.4,7.5-7.5v-90
		C407.9,100.9,404.5,97.6,400.4,97.6z M392.9,187.6H164.1v-75h228.8V187.6z"/>
	<path class="st3" d="M400.4,227.6H247.1c-4.1,0-7.5,3.4-7.5,7.5s3.4,7.5,7.5,7.5h153.2c4.1,0,7.5-3.4,7.5-7.5
		S404.5,227.6,400.4,227.6z"/>
	<path class="st3" d="M217.1,227.6h-60.5c-4.1,0-7.5,3.4-7.5,7.5s3.4,7.5,7.5,7.5h60.5c4.1,0,7.5-3.4,7.5-7.5
		S221.3,227.6,217.1,227.6z"/>
</g>
</svg>
