<?xml version="1.0" encoding="utf-8"?>
<!-- Generator: Adobe Illustrator 19.2.1, SVG Export Plug-In . SVG Version: 6.00 Build 0)  -->
<svg version="1.1" id="Capa_1" xmlns="http://www.w3.org/2000/svg" xmlns:xlink="http://www.w3.org/1999/xlink" x="0px" y="0px"
	 viewBox="0 0 470 690" style="enable-background:new 0 0 470 690;" xml:space="preserve">
<style type="text/css">
	.st0{fill:#15DEB0;}
	.st1{fill:#00A58D;}
	.st2{fill:#C1E8E6;}
	.st3{fill:#082947;}
	.st4{font-family:'Industry-Bold';}
	.st5{font-size:129.4131px;}
</style>
<g>
	<path class="st0" d="M347.7,475V312.7c-11.5,4.7-24,7.1-36.7,7.1c-23.5,0-45.5-8.2-62-22.6v68c0,4.1-3.4,7.5-7.5,7.5
		c-4.1,0-7.5-3.4-7.5-7.5v-68c-16.5,14.4-38.5,22.6-62,22.6c-12.7,0-25.2-2.4-36.7-7.1V475H234v-79.8c0-4.1,3.4-7.5,7.5-7.5
		c4.1,0,7.5,3.4,7.5,7.5V475H347.7z"/>
	<polygon class="st1" points="205.3,133.8 277.6,133.8 241.5,47 	"/>
	<path class="st2" d="M171.9,304.8c25.9,0,49.6-11.7,63.4-31.4c1.4-2,3.7-3.2,6.1-3.2s4.7,1.2,6.1,3.2
		c13.8,19.6,37.5,31.4,63.4,31.4c12.2,0,24-2.6,34.7-7.6l-61.8-148.4h-84.8l-61.8,148.4C147.9,302.2,159.8,304.8,171.9,304.8z"/>
	<path class="st3" d="M362.7,300.5C362.7,300.5,362.7,300.4,362.7,300.5c0-1-0.2-2-0.6-2.9l-66.3-159.2c0,0,0-0.1,0-0.1L248.4,24.6
		c-1.2-2.8-3.9-4.6-6.9-4.6c-3,0-5.8,1.8-6.9,4.6l-47.4,113.7c0,0,0,0.1,0,0.1l-66.3,159.2c-0.4,0.9-0.6,1.8-0.6,2.8
		c0,0.1,0,182.1,0,182.1c0,4.1,3.4,7.5,7.5,7.5h227.5c4.1,0,7.5-3.4,7.5-7.5C362.7,482.5,362.7,300.5,362.7,300.5z M241.5,387.7
		c-4.1,0-7.5,3.4-7.5,7.5V475h-98.8V312.7c11.5,4.7,24,7.1,36.7,7.1c23.5,0,45.5-8.2,62-22.6v68c0,4.1,3.4,7.5,7.5,7.5
		c4.1,0,7.5-3.4,7.5-7.5v-68c16.5,14.4,38.5,22.6,62,22.6c12.7,0,25.2-2.4,36.7-7.1V475H249v-79.8
		C249,391.1,245.6,387.7,241.5,387.7z M199.1,148.8h84.8l61.8,148.4c-10.7,5-22.5,7.6-34.7,7.6c-25.9,0-49.6-11.7-63.4-31.4
		c-1.4-2-3.7-3.2-6.1-3.2s-4.7,1.2-6.1,3.2c-13.8,19.6-37.5,31.4-63.4,31.4c-12.2,0-24-2.6-34.7-7.6L199.1,148.8z M205.3,133.8
		L241.5,47l36.1,86.8H205.3z"/>
</g>
<text transform="matrix(1 0 0 1 122.8457 664.3932)" class="st3 st4 st5">TOP</text>
</svg>
