<?xml version="1.0" encoding="utf-8"?>
<!-- Generator: Adobe Illustrator 19.2.1, SVG Export Plug-In . SVG Version: 6.00 Build 0)  -->
<svg version="1.1" id="Capa_1" xmlns="http://www.w3.org/2000/svg" xmlns:xlink="http://www.w3.org/1999/xlink" x="0px" y="0px"
	 viewBox="0 0 639.1 639.1" style="enable-background:new 0 0 639.1 639.1;" xml:space="preserve">
<style type="text/css">
	.st0{fill:#15DEB0;}
	.st1{fill:#C1E8E6;}
	.st2{fill:#082947;}
	.st3{fill:#00A58D;}
</style>
<g>
	<path class="st0" d="M502.6,86.4c0-4.8,4-8.9,8.9-8.9s8.9,4,8.9,8.9H538c0-4.8,4-8.9,8.9-8.9c4.8,0,8.9,4,8.9,8.9v466.4
		c0,4.8-4,8.9-8.9,8.9c-4.8,0-8.9-4-8.9-8.9h-17.7c0,4.8-4,8.9-8.9,8.9s-8.9-4-8.9-8.9h-17.7v26.6h88.6V59.8h-62
		c-4.8,0-8.9-4-8.9-8.9h-17.7v35.4H502.6z"/>
	<rect x="520.3" y="86.4" class="st1" width="17.7" height="466.4"/>
	<rect x="484.9" y="86.4" class="st1" width="17.7" height="466.4"/>
	<path class="st0" d="M467.2,59.8H112.9v20.7h20.7c14.6,0,26.6,11.9,26.6,26.6s-11.9,26.6-26.6,26.6h-20.7v88.6h20.7
		c14.6,0,26.6,11.9,26.6,26.6c0,14.6-11.9,26.6-26.6,26.6h-20.7v88.6h20.7c14.6,0,26.6,11.9,26.6,26.6c0,14.6-11.9,26.6-26.6,26.6
		h-20.7v88.6h20.7c14.6,0,26.6,11.9,26.6,26.6c0,14.6-11.9,26.6-26.6,26.6h-20.7v20.7h354.2V59.8z M386.9,543.3
		c-1.3,0-2.5-0.2-3.7-0.8c-2-0.9-3.7-2.6-4.5-4.6c-0.5-1.1-0.7-2.2-0.7-3.4c0-0.1,0-0.4,0-0.5c0.1-3.4,2.4-6.4,5.4-7.7
		c0.8-0.4,1.7-0.6,2.6-0.7c0.4,0,0.6,0,0.9,0c4.8,0,8.9,4,8.9,8.9S391.7,543.3,386.9,543.3z M431.2,500c-0.2,2.7-1.8,5-3.9,6.5
		c-0.5,0.4-0.9,0.6-1.5,0.8c-1.1,0.5-2.2,0.7-3.4,0.7c-4.8,0-8.9-4-8.9-8.9s4-8.9,8.9-8.9c1.1,0,2.1,0.2,3.1,0.6
		c2.2,0.8,4.1,2.6,5.1,4.8c0.5,1.1,0.7,2.2,0.7,3.4C431.2,499.4,431.2,499.6,431.2,500z"/>
	<path class="st0" d="M395.7,534.5c0-4.8-4-8.9-8.9-8.9c-0.4,0-0.6,0-0.9,0c-0.9,0.1-1.8,0.4-2.6,0.7c-3.1,1.3-5.2,4.3-5.4,7.7
		c0,0.1,0,0.4,0,0.5c0,1.2,0.2,2.4,0.7,3.4c0.8,2,2.5,3.7,4.5,4.6c1.1,0.5,2.4,0.8,3.7,0.8C391.7,543.3,395.7,539.3,395.7,534.5z"/>
	<path class="st0" d="M431.2,499.1c0-1.2-0.2-2.4-0.7-3.4c-0.9-2.2-2.8-4-5.1-4.8c-0.9-0.4-2-0.6-3.1-0.6c-4.8,0-8.9,4-8.9,8.9
		s4,8.9,8.9,8.9c1.2,0,2.4-0.2,3.4-0.7c0.5-0.2,1.1-0.5,1.5-0.8c2.1-1.4,3.5-3.8,3.9-6.5C431.2,499.6,431.2,499.4,431.2,499.1z"/>
	<path class="st2" d="M582.3,42.1h-70.8c-4.8,0-8.9,4-8.9,8.9s4,8.9,8.9,8.9h62v519.5h-88.6V50.9c0-4.8-4-8.9-8.9-8.9H104.1
		c-4.8,0-8.9,4-8.9,8.9v29.5H74.6C59.9,80.5,48,92.4,48,107s11.9,26.6,26.6,26.6h20.7v88.6H74.6c-14.6,0-26.6,11.9-26.6,26.6
		c0,14.6,11.9,26.6,26.6,26.6h20.7v88.6H74.6c-14.6,0-26.6,11.9-26.6,26.6c0,14.6,11.9,26.6,26.6,26.6h20.7v88.6H74.6
		c-14.6,0-26.6,11.9-26.6,26.6c0,14.6,11.9,26.6,26.6,26.6h20.7v29.5c0,4.8,4,8.9,8.9,8.9h478.2c4.8,0,8.9-4,8.9-8.9V50.9
		C591.2,46.1,587.1,42.1,582.3,42.1z M65.7,532.1c0-4.8,4-8.9,8.9-8.9h59c4.8,0,8.9,4,8.9,8.9c0,4.8-4,8.9-8.9,8.9h-59
		C69.7,541,65.7,537,65.7,532.1z M112.9,558.7h20.7c14.6,0,26.6-11.9,26.6-26.6c0-14.6-11.9-26.6-26.6-26.6h-20.7V417h20.7
		c14.6,0,26.6-11.9,26.6-26.6c0-14.6-11.9-26.6-26.6-26.6h-20.7v-88.6h20.7c14.6,0,26.6-11.9,26.6-26.6c0-14.6-11.9-26.6-26.6-26.6
		h-20.7v-88.6h20.7c14.6,0,26.6-11.9,26.6-26.6s-11.9-26.6-26.6-26.6h-20.7V59.8h354.2v519.5H112.9V558.7z M65.7,390.4
		c0-4.8,4-8.9,8.9-8.9h59c4.8,0,8.9,4,8.9,8.9c0,4.8-4,8.9-8.9,8.9h-59C69.7,399.3,65.7,395.3,65.7,390.4z M65.7,248.7
		c0-4.8,4-8.9,8.9-8.9h59c4.8,0,8.9,4,8.9,8.9s-4,8.9-8.9,8.9h-59C69.7,257.6,65.7,253.6,65.7,248.7z M65.7,107c0-4.8,4-8.9,8.9-8.9
		h59c4.8,0,8.9,4,8.9,8.9c0,4.8-4,8.9-8.9,8.9h-59C69.7,115.9,65.7,111.9,65.7,107z"/>
	<path class="st2" d="M511.4,561.6c4.8,0,8.9-4,8.9-8.9V86.4c0-4.8-4-8.9-8.9-8.9s-8.9,4-8.9,8.9v466.4
		C502.6,557.6,506.6,561.6,511.4,561.6z"/>
	<path class="st2" d="M546.9,561.6c4.8,0,8.9-4,8.9-8.9V86.4c0-4.8-4-8.9-8.9-8.9c-4.8,0-8.9,4-8.9,8.9v466.4
		C538,557.6,542,561.6,546.9,561.6z"/>
	<path class="st3" d="M133.6,541c4.8,0,8.9-4,8.9-8.9c0-4.8-4-8.9-8.9-8.9h-59c-4.8,0-8.9,4-8.9,8.9c0,4.8,4,8.9,8.9,8.9H133.6z"/>
	<path class="st3" d="M133.6,399.3c4.8,0,8.9-4,8.9-8.9c0-4.8-4-8.9-8.9-8.9h-59c-4.8,0-8.9,4-8.9,8.9c0,4.8,4,8.9,8.9,8.9H133.6z"
		/>
	<path class="st3" d="M133.6,257.6c4.8,0,8.9-4,8.9-8.9s-4-8.9-8.9-8.9h-59c-4.8,0-8.9,4-8.9,8.9s4,8.9,8.9,8.9H133.6z"/>
	<path class="st3" d="M133.6,115.9c4.8,0,8.9-4,8.9-8.9c0-4.8-4-8.9-8.9-8.9h-59c-4.8,0-8.9,4-8.9,8.9c0,4.8,4,8.9,8.9,8.9H133.6z"
		/>
	<g>
		<path class="st2" d="M240.3,200.6c0-3.5,2.8-6.8,6.8-6.8h84.2c44.2,0,80.3,35.9,80.3,79.2c0,44.5-36.2,80.6-79.9,80.6h-44.9v84.3
			c0,3.5-3.2,6.8-6.8,6.8h-32.9c-3.9,0-6.8-3.2-6.8-6.8V200.6H240.3z M328.5,309.9c20.1,0,37-16.2,37-37.3c0-19.7-16.9-34.8-37-34.8
			H287v72h41.6V309.9z"/>
	</g>
</g>
</svg>
